<?xml version="1.0" encoding="UTF-8"?>
<svg viewBox="0 0 26 26" version="1.1" xmlns="http://www.w3.org/2000/svg" xmlns:xlink="http://www.w3.org/1999/xlink">
    <!-- Generator: Sketch 60.1 (88133) - https://sketch.com -->
    <title>logistics</title>
    <desc>Created with Sketch.</desc>
    <g id="Page-1" stroke="none" stroke-width="1" fill="none" fill-rule="evenodd">
        <g id="logistics">
            <g id="Group-6">
                <rect id="Rectangle" fill="#F7E7D4" x="0" y="0" width="26" height="26" rx="0"></rect>
                <g id="Group-23" transform="translate(4.295301, 5.163136)" fill-rule="nonzero">
                    <path d="M14.3710076,6.91937404 L2.66129771,6.91937404 C2.36749044,6.91937404 2.12903817,7.15782631 2.12903817,7.45163358 L2.12903817,12.2419695 C2.12903817,12.4655185 2.26849017,12.665648 2.47926494,12.7422934 L8.3341199,16.4681102 C8.39266845,16.4894006 8.45441056,16.5000458 8.51615266,16.5000458 C8.57789477,16.5000458 8.63963688,16.4894006 8.69818543,16.4681102 L14.5530404,12.7422934 C14.7627506,12.665648 14.9032672,12.4655185 14.9032672,12.2419695 L14.9032672,7.45163358 C14.9032672,7.15782631 14.6648149,6.91937404 14.3710076,6.91937404 Z" id="Path" fill="#FFA000"></path>
                    <path d="M14.3710076,6.91937404 L8.51615266,6.91937404 L8.51615266,16.5000458 C8.57789477,16.5000458 8.63963688,16.4894006 8.69818543,16.4681102 L14.5530404,12.7422934 C14.7627506,12.665648 14.9032672,12.4655185 14.9032672,12.2419695 L14.9032672,7.45163358 C14.9032672,7.15782631 14.6648149,6.91937404 14.3710076,6.91937404 Z" id="Path" fill="#FFC107"></path>
                    <g id="Group" fill="#FFD54F">
                        <polygon id="Path" points="8.52679785 1.2774229 2.22484488 5.05646564 0 3.72581679 6.39775969 0"></polygon>
                        <polygon id="Path" points="17.0323053 6.3871145 10.6664812 10.1129313 8.52679785 8.83550839 14.8181056 5.05646564"></polygon>
                    </g>
                    <polygon id="Path" fill="#FFA000" points="14.8181056 5.05646564 8.52679785 8.83550839 2.22484488 5.05646564 8.52679785 1.2774229"></polygon>
                    <g id="Group" fill="#FFD54F">
                        <polygon id="Path" points="2.22484488 5.05646564 8.52679785 8.83550839 6.39775969 10.1129313 0 6.3871145"></polygon>
                        <polygon id="Path" points="17.0323053 3.72581679 14.8181056 5.05646564 8.52679785 1.2774229 10.6664812 0"></polygon>
                    </g>
                </g>
            </g>
        </g>
    </g>
</svg>